<svg width="84" height="84" viewBox="0 0 84 84" fill="none" xmlns="http://www.w3.org/2000/svg">
<circle cx="42" cy="42" r="42" fill="#FF832B"/>
<path d="M21.84 41.4V52.96C21.68 53.0133 21.4667 53.0667 21.2 53.12C20.9333 53.2 20.64 53.24 20.32 53.24C19.1467 53.24 18.56 52.7467 18.56 51.76V28.76C18.6933 28.7067 18.8933 28.6533 19.16 28.6C19.4533 28.52 19.76 28.48 20.08 28.48C21.2533 28.48 21.84 28.9733 21.84 29.96V39.92L32.84 28.52C33.5333 28.5467 34.0533 28.72 34.4 29.04C34.7467 29.36 34.92 29.7333 34.92 30.16C34.92 30.5067 34.8267 30.8267 34.64 31.12C34.4533 31.4133 34.1867 31.7333 33.84 32.08L25.2 40.56C27.6267 42.9333 29.72 45.0533 31.48 46.92C33.2667 48.76 34.8 50.2533 36.08 51.4C36.0267 51.9867 35.84 52.4533 35.52 52.8C35.2267 53.12 34.84 53.28 34.36 53.28C33.9067 53.28 33.4933 53.16 33.12 52.92C32.7733 52.6533 32.4133 52.3333 32.04 51.96L21.84 41.4ZM64.0562 52.92C63.8962 52.9733 63.6829 53.0267 63.4163 53.08C63.1496 53.16 62.8563 53.2 62.5362 53.2C61.3629 53.2 60.7762 52.7067 60.7762 51.72V42.04H48.2962V52.92C48.1362 52.9733 47.9229 53.0267 47.6562 53.08C47.3896 53.16 47.0962 53.2 46.7762 53.2C45.6029 53.2 45.0162 52.7067 45.0162 51.72V28.76C45.1496 28.7067 45.3496 28.6533 45.6162 28.6C45.9096 28.52 46.2162 28.48 46.5362 28.48C47.7096 28.48 48.2962 28.9733 48.2962 29.96V39.32H60.7762V28.76C60.9096 28.7067 61.1096 28.6533 61.3763 28.6C61.6696 28.52 61.9762 28.48 62.2963 28.48C63.4696 28.48 64.0562 28.9733 64.0562 29.96V52.92Z" fill="black"/>
<path d="M21.84 41.4L22.5593 40.7053L20.84 38.9253V41.4H21.84ZM21.84 52.96L22.1562 53.9087L22.84 53.6808V52.96H21.84ZM21.2 53.12L21.0039 52.1394L20.9577 52.1486L20.9127 52.1622L21.2 53.12ZM18.56 28.76L18.1886 27.8315L17.56 28.083V28.76H18.56ZM19.16 28.6L19.3561 29.5806L19.3899 29.5738L19.4231 29.5648L19.16 28.6ZM21.84 39.92H20.84V42.3965L22.5596 40.6144L21.84 39.92ZM32.84 28.52L32.8784 27.5207L32.4312 27.5035L32.1204 27.8256L32.84 28.52ZM34.4 29.04L35.0783 28.3052L35.0783 28.3052L34.4 29.04ZM34.64 31.12L33.7963 30.5831L33.7963 30.5831L34.64 31.12ZM33.84 32.08L34.5405 32.7937L34.5471 32.7871L33.84 32.08ZM25.2 40.56L24.4995 39.8463L23.7711 40.5613L24.5008 41.2749L25.2 40.56ZM31.48 46.92L30.7524 47.606L30.7575 47.6114L30.7626 47.6166L31.48 46.92ZM36.08 51.4L37.0759 51.4905L37.1214 50.9903L36.7472 50.6552L36.08 51.4ZM35.52 52.8L34.7852 52.1217L34.7828 52.1243L35.52 52.8ZM33.12 52.92L32.5103 53.7126L32.5437 53.7384L32.5792 53.7612L33.12 52.92ZM32.04 51.96L31.3207 52.6547L31.3268 52.661L31.3329 52.6671L32.04 51.96ZM20.84 41.4V52.96H22.84V41.4H20.84ZM21.5238 52.0113C21.4194 52.0461 21.2512 52.0899 21.0039 52.1394L21.3961 54.1006C21.6821 54.0434 21.9406 53.9806 22.1562 53.9087L21.5238 52.0113ZM20.9127 52.1622C20.7519 52.2104 20.5569 52.24 20.32 52.24V54.24C20.7231 54.24 21.1148 54.1896 21.4873 54.0778L20.9127 52.1622ZM20.32 52.24C19.8493 52.24 19.6826 52.1374 19.6436 52.1046C19.6378 52.0998 19.56 52.0494 19.56 51.76H17.56C17.56 52.4573 17.7755 53.1469 18.3564 53.6354C18.9041 54.0959 19.6174 54.24 20.32 54.24V52.24ZM19.56 51.76V28.76H17.56V51.76H19.56ZM18.9314 29.6885C18.9782 29.6697 19.1064 29.6305 19.3561 29.5806L18.9639 27.6194C18.6803 27.6761 18.4084 27.7436 18.1886 27.8315L18.9314 29.6885ZM19.4231 29.5648C19.6263 29.5093 19.8442 29.48 20.08 29.48V27.48C19.6758 27.48 19.2804 27.5307 18.8969 27.6352L19.4231 29.5648ZM20.08 29.48C20.5507 29.48 20.7174 29.5826 20.7564 29.6154C20.7622 29.6202 20.84 29.6706 20.84 29.96H22.84C22.84 29.2627 22.6245 28.5731 22.0436 28.0846C21.4959 27.6241 20.7826 27.48 20.08 27.48V29.48ZM20.84 29.96V39.92H22.84V29.96H20.84ZM22.5596 40.6144L33.5596 29.2144L32.1204 27.8256L21.1204 39.2256L22.5596 40.6144ZM32.8016 29.5193C33.366 29.541 33.6163 29.6775 33.7217 29.7748L35.0783 28.3052C34.4904 27.7625 33.7007 27.5524 32.8784 27.5207L32.8016 29.5193ZM33.7217 29.7748C33.8874 29.9277 33.92 30.0436 33.92 30.16H35.92C35.92 29.423 35.6059 28.7923 35.0783 28.3052L33.7217 29.7748ZM33.92 30.16C33.92 30.3159 33.8812 30.4497 33.7963 30.5831L35.4837 31.6569C35.7721 31.2036 35.92 30.6974 35.92 30.16H33.92ZM33.7963 30.5831C33.6611 30.7956 33.4472 31.0586 33.1329 31.3729L34.5471 32.7871C34.9261 32.4081 35.2455 32.0311 35.4837 31.6569L33.7963 30.5831ZM33.1395 31.3663L24.4995 39.8463L25.9005 41.2737L34.5405 32.7937L33.1395 31.3663ZM24.5008 41.2749C26.9207 43.6416 29.0041 45.7517 30.7524 47.606L32.2076 46.234C30.4359 44.355 28.3327 42.225 25.8992 39.8451L24.5008 41.2749ZM30.7626 47.6166C32.5584 49.466 34.1093 50.9772 35.4128 52.1448L36.7472 50.6552C35.4907 49.5295 33.975 48.054 32.1974 46.2234L30.7626 47.6166ZM35.0841 51.3095C35.0457 51.7323 34.922 51.9736 34.7852 52.1217L36.2548 53.4783C36.758 52.9331 37.0077 52.241 37.0759 51.4905L35.0841 51.3095ZM34.7828 52.1243C34.7001 52.2145 34.5927 52.28 34.36 52.28V54.28C35.0873 54.28 35.7532 54.0255 36.2572 53.4757L34.7828 52.1243ZM34.36 52.28C34.0941 52.28 33.8692 52.2128 33.6608 52.0788L32.5792 53.7612C33.1175 54.1072 33.7193 54.28 34.36 54.28V52.28ZM33.7297 52.1274C33.4235 51.8918 33.0959 51.6017 32.7471 51.2529L31.3329 52.6671C31.7308 53.065 32.1232 53.4149 32.5103 53.7126L33.7297 52.1274ZM32.7593 51.2653L22.5593 40.7053L21.1207 42.0947L31.3207 52.6547L32.7593 51.2653ZM64.0562 52.92L64.3725 53.8687L65.0562 53.6408V52.92H64.0562ZM63.4163 53.08L63.2201 52.0994L63.174 52.1086L63.1289 52.1222L63.4163 53.08ZM60.7762 42.04H61.7762V41.04H60.7762V42.04ZM48.2962 42.04V41.04H47.2962V42.04H48.2962ZM48.2962 52.92L48.6125 53.8687L49.2962 53.6408V52.92H48.2962ZM47.6562 53.08L47.4601 52.0994L47.414 52.1086L47.3689 52.1222L47.6562 53.08ZM45.0162 28.76L44.6449 27.8315L44.0162 28.083V28.76H45.0162ZM45.6162 28.6L45.8124 29.5806L45.8461 29.5738L45.8794 29.5648L45.6162 28.6ZM48.2962 39.32H47.2962V40.32H48.2962V39.32ZM60.7762 39.32V40.32H61.7762V39.32H60.7762ZM60.7762 28.76L60.4049 27.8315L59.7762 28.083V28.76H60.7762ZM61.3763 28.6L61.5724 29.5806L61.6061 29.5738L61.6394 29.5648L61.3763 28.6ZM63.74 51.9713C63.6357 52.0061 63.4675 52.0499 63.2201 52.0994L63.6124 54.0606C63.8983 54.0034 64.1568 53.9406 64.3725 53.8687L63.74 51.9713ZM63.1289 52.1222C62.9682 52.1704 62.7732 52.2 62.5362 52.2V54.2C62.9394 54.2 63.331 54.1496 63.7036 54.0378L63.1289 52.1222ZM62.5362 52.2C62.0655 52.2 61.8988 52.0974 61.8598 52.0646C61.8541 52.0598 61.7762 52.0094 61.7762 51.72H59.7762C59.7762 52.4173 59.9918 53.1069 60.5726 53.5954C61.1203 54.0559 61.8336 54.2 62.5362 54.2V52.2ZM61.7762 51.72V42.04H59.7762V51.72H61.7762ZM60.7762 41.04H48.2962V43.04H60.7762V41.04ZM47.2962 42.04V52.92H49.2962V42.04H47.2962ZM47.98 51.9713C47.8757 52.0061 47.7075 52.0499 47.4601 52.0994L47.8524 54.0606C48.1383 54.0034 48.3968 53.9406 48.6125 53.8687L47.98 51.9713ZM47.3689 52.1222C47.2082 52.1704 47.0131 52.2 46.7762 52.2V54.2C47.1793 54.2 47.571 54.1496 47.9436 54.0378L47.3689 52.1222ZM46.7762 52.2C46.3055 52.2 46.1388 52.0974 46.0998 52.0646C46.0941 52.0598 46.0162 52.0094 46.0162 51.72H44.0162C44.0162 52.4173 44.2318 53.1069 44.8126 53.5954C45.3603 54.0559 46.0736 54.2 46.7762 54.2V52.2ZM46.0162 51.72V28.76H44.0162V51.72H46.0162ZM45.3876 29.6885C45.4345 29.6697 45.5626 29.6305 45.8124 29.5806L45.4201 27.6194C45.1365 27.6761 44.8647 27.7436 44.6449 27.8315L45.3876 29.6885ZM45.8794 29.5648C46.0826 29.5093 46.3005 29.48 46.5362 29.48V27.48C46.132 27.48 45.7366 27.5307 45.3531 27.6352L45.8794 29.5648ZM46.5362 29.48C47.007 29.48 47.1737 29.5826 47.2126 29.6154C47.2184 29.6202 47.2962 29.6706 47.2962 29.96H49.2962C49.2962 29.2627 49.0807 28.5731 48.4998 28.0846C47.9522 27.6241 47.2389 27.48 46.5362 27.48V29.48ZM47.2962 29.96V39.32H49.2962V29.96H47.2962ZM48.2962 40.32H60.7762V38.32H48.2962V40.32ZM61.7762 39.32V28.76H59.7762V39.32H61.7762ZM61.1476 29.6885C61.1945 29.6697 61.3226 29.6305 61.5724 29.5806L61.1801 27.6194C60.8965 27.6761 60.6247 27.7436 60.4049 27.8315L61.1476 29.6885ZM61.6394 29.5648C61.8426 29.5093 62.0605 29.48 62.2963 29.48V27.48C61.892 27.48 61.4966 27.5307 61.1131 27.6352L61.6394 29.5648ZM62.2963 29.48C62.767 29.48 62.9337 29.5826 62.9726 29.6154C62.9784 29.6202 63.0562 29.6706 63.0562 29.96H65.0562C65.0562 29.2627 64.8407 28.5731 64.2598 28.0846C63.7122 27.6241 62.9989 27.48 62.2963 27.48V29.48ZM63.0562 29.96V52.92H65.0562V29.96H63.0562Z" fill="black"/>
</svg>
